{
    "asset" : {
        "generator" : "Khronos glTF Blender I/O v1.1.46",
        "version" : "2.0"
    },
    "scene" : 0,
    "scenes" : [
        {
            "name" : "Scene",
            "nodes" : [
                0,
                1,
                2,
                3,
                4,
                5,
                6,
                7,
                8,
                9
            ]
        }
    ],
    "nodes" : [
        {
            "mesh" : 0,
            "name" : "Plane",
            "scale" : [
                10,
                1,
                10.000001907348633
            ],
            "translation" : [
                0,
                -2,
                0
            ]
        },
        {
            "mesh" : 1,
            "name" : "Plane.001",
            "rotation" : [
                0.49833327531814575,
                0.5016612410545349,
                -0.5016611814498901,
                0.498333215713501
            ],
            "scale" : [
                10.000001907348633,
                1,
                3.000002145767212
            ],
            "translation" : [
                -10,
                1.0000001192092896,
                0
            ]
        },
        {
            "mesh" : 2,
            "name" : "Plane.002",
            "rotation" : [
                0.4999999701976776,
                -0.5000001192092896,
                0.5000000596046448,
                0.49999988079071045
            ],
            "scale" : [
                10.000009536743164,
                1,
                3.000004529953003
            ],
            "translation" : [
                10,
                1.027405023574829,
                0
            ]
        },
        {
            "mesh" : 3,
            "name" : "Cube",
            "scale" : [
                1,
                2.0000007152557373,
                1
            ],
            "translation" : [
                4,
                0.027407389134168625,
                -5.000001907348633
            ]
        },
        {
            "mesh" : 4,
            "name" : "Cube.001",
            "rotation" : [
                0.7071068286895752,
                0,
                0,
                0.7071067094802856
            ],
            "scale" : [
                1,
                4.000001430511475,
                1
            ],
            "translation" : [
                4,
                -0.9725958704948425,
                0
            ]
        },
        {
            "mesh" : 5,
            "name" : "Cube.003",
            "rotation" : [
                0,
                0.9999998211860657,
                0,
                0.0005782088846899569
            ],
            "scale" : [
                1,
                2.000000476837158,
                1
            ],
            "translation" : [
                -3.998973846435547,
                0.027404993772506714,
                3.6944425106048584
            ]
        },
        {
            "mesh" : 6,
            "name" : "Cube.002",
            "rotation" : [
                0.0004088553541805595,
                0.7071067094802856,
                -0.7071066498756409,
                0.00040885538328438997
            ],
            "scale" : [
                1,
                4.000001430511475,
                1
            ],
            "translation" : [
                -3.993191719055176,
                -0.9725954532623291,
                -1.305556058883667
            ]
        },
        {
            "mesh" : 7,
            "name" : "Plane.003",
            "rotation" : [
                0.7071068286895752,
                0,
                0,
                0.7071067094802856
            ],
            "scale" : [
                10,
                1,
                3.000002145767212
            ],
            "translation" : [
                0,
                1.0000014305114746,
                -10.000003814697266
            ]
        },
        {
            "mesh" : 8,
            "name" : "Plane.004",
            "rotation" : [
                0,
                0.7071068286895752,
                -0.7071067094802856,
                0
            ],
            "scale" : [
                9.999959945678711,
                0.9999960660934448,
                3.000002145767212
            ],
            "translation" : [
                0,
                0.9999987483024597,
                10.000000953674316
            ]
        },
        {
            "mesh" : 9,
            "name" : "Plane.005",
            "rotation" : [
                0.9999849796295166,
                0,
                0,
                0
            ],
            "scale" : [
                10,
                1,
                10.000001907348633
            ],
            "translation" : [
                0,
                4.043156623840332,
                0
            ]
        }
    ],
    "meshes" : [
        {
            "name" : "Plane.004",
            "primitives" : [
                {
                    "attributes" : {
                        "POSITION" : 0,
                        "NORMAL" : 1,
                        "TEXCOORD_0" : 2
                    },
                    "indices" : 3
                }
            ]
        },
        {
            "name" : "Plane.005",
            "primitives" : [
                {
                    "attributes" : {
                        "POSITION" : 4,
                        "NORMAL" : 5,
                        "TEXCOORD_0" : 6
                    },
                    "indices" : 3
                }
            ]
        },
        {
            "name" : "Plane.006",
            "primitives" : [
                {
                    "attributes" : {
                        "POSITION" : 7,
                        "NORMAL" : 8,
                        "TEXCOORD_0" : 9
                    },
                    "indices" : 3
                }
            ]
        },
        {
            "name" : "Cube.005",
            "primitives" : [
                {
                    "attributes" : {
                        "POSITION" : 10,
                        "NORMAL" : 11,
                        "TEXCOORD_0" : 12
                    },
                    "indices" : 13
                }
            ]
        },
        {
            "name" : "Cube.006",
            "primitives" : [
                {
                    "attributes" : {
                        "POSITION" : 14,
                        "NORMAL" : 15,
                        "TEXCOORD_0" : 16
                    },
                    "indices" : 13
                }
            ]
        },
        {
            "name" : "Cube.002",
            "primitives" : [
                {
                    "attributes" : {
                        "POSITION" : 17,
                        "NORMAL" : 18,
                        "TEXCOORD_0" : 19
                    },
                    "indices" : 13
                }
            ]
        },
        {
            "name" : "Cube.001",
            "primitives" : [
                {
                    "attributes" : {
                        "POSITION" : 20,
                        "NORMAL" : 21,
                        "TEXCOORD_0" : 22
                    },
                    "indices" : 13
                }
            ]
        },
        {
            "name" : "Plane.001",
            "primitives" : [
                {
                    "attributes" : {
                        "POSITION" : 23,
                        "NORMAL" : 24,
                        "TEXCOORD_0" : 25
                    },
                    "indices" : 3
                }
            ]
        },
        {
            "name" : "Plane.002",
            "primitives" : [
                {
                    "attributes" : {
                        "POSITION" : 26,
                        "NORMAL" : 27,
                        "TEXCOORD_0" : 28
                    },
                    "indices" : 3
                }
            ]
        },
        {
            "name" : "Plane.003",
            "primitives" : [
                {
                    "attributes" : {
                        "POSITION" : 29,
                        "NORMAL" : 30,
                        "TEXCOORD_0" : 31
                    },
                    "indices" : 3
                }
            ]
        }
    ],
    "accessors" : [
        {
            "bufferView" : 0,
            "componentType" : 5126,
            "count" : 4,
            "max" : [
                1,
                0,
                1
            ],
            "min" : [
                -1,
                0,
                -1
            ],
            "type" : "VEC3"
        },
        {
            "bufferView" : 1,
            "componentType" : 5126,
            "count" : 4,
            "type" : "VEC3"
        },
        {
            "bufferView" : 2,
            "componentType" : 5126,
            "count" : 4,
            "type" : "VEC2"
        },
        {
            "bufferView" : 3,
            "componentType" : 5123,
            "count" : 6,
            "type" : "SCALAR"
        },
        {
            "bufferView" : 4,
            "componentType" : 5126,
            "count" : 4,
            "max" : [
                1,
                0,
                1
            ],
            "min" : [
                -1,
                0,
                -1
            ],
            "type" : "VEC3"
        },
        {
            "bufferView" : 5,
            "componentType" : 5126,
            "count" : 4,
            "type" : "VEC3"
        },
        {
            "bufferView" : 6,
            "componentType" : 5126,
            "count" : 4,
            "type" : "VEC2"
        },
        {
            "bufferView" : 7,
            "componentType" : 5126,
            "count" : 4,
            "max" : [
                1,
                0,
                1
            ],
            "min" : [
                -1,
                0,
                -1
            ],
            "type" : "VEC3"
        },
        {
            "bufferView" : 8,
            "componentType" : 5126,
            "count" : 4,
            "type" : "VEC3"
        },
        {
            "bufferView" : 9,
            "componentType" : 5126,
            "count" : 4,
            "type" : "VEC2"
        },
        {
            "bufferView" : 10,
            "componentType" : 5126,
            "count" : 24,
            "max" : [
                1,
                1,
                1
            ],
            "min" : [
                -1,
                -1,
                -1
            ],
            "type" : "VEC3"
        },
        {
            "bufferView" : 11,
            "componentType" : 5126,
            "count" : 24,
            "type" : "VEC3"
        },
        {
            "bufferView" : 12,
            "componentType" : 5126,
            "count" : 24,
            "type" : "VEC2"
        },
        {
            "bufferView" : 13,
            "componentType" : 5123,
            "count" : 36,
            "type" : "SCALAR"
        },
        {
            "bufferView" : 14,
            "componentType" : 5126,
            "count" : 24,
            "max" : [
                1,
                1,
                1
            ],
            "min" : [
                -1,
                -1,
                -1
            ],
            "type" : "VEC3"
        },
        {
            "bufferView" : 15,
            "componentType" : 5126,
            "count" : 24,
            "type" : "VEC3"
        },
        {
            "bufferView" : 16,
            "componentType" : 5126,
            "count" : 24,
            "type" : "VEC2"
        },
        {
            "bufferView" : 17,
            "componentType" : 5126,
            "count" : 24,
            "max" : [
                1,
                1,
                1
            ],
            "min" : [
                -1,
                -1,
                -1
            ],
            "type" : "VEC3"
        },
        {
            "bufferView" : 18,
            "componentType" : 5126,
            "count" : 24,
            "type" : "VEC3"
        },
        {
            "bufferView" : 19,
            "componentType" : 5126,
            "count" : 24,
            "type" : "VEC2"
        },
        {
            "bufferView" : 20,
            "componentType" : 5126,
            "count" : 24,
            "max" : [
                1,
                1,
                1
            ],
            "min" : [
                -1,
                -1,
                -1
            ],
            "type" : "VEC3"
        },
        {
            "bufferView" : 21,
            "componentType" : 5126,
            "count" : 24,
            "type" : "VEC3"
        },
        {
            "bufferView" : 22,
            "componentType" : 5126,
            "count" : 24,
            "type" : "VEC2"
        },
        {
            "bufferView" : 23,
            "componentType" : 5126,
            "count" : 4,
            "max" : [
                1,
                0,
                1
            ],
            "min" : [
                -1,
                0,
                -1
            ],
            "type" : "VEC3"
        },
        {
            "bufferView" : 24,
            "componentType" : 5126,
            "count" : 4,
            "type" : "VEC3"
        },
        {
            "bufferView" : 25,
            "componentType" : 5126,
            "count" : 4,
            "type" : "VEC2"
        },
        {
            "bufferView" : 26,
            "componentType" : 5126,
            "count" : 4,
            "max" : [
                1,
                0,
                1
            ],
            "min" : [
                -1,
                0,
                -1
            ],
            "type" : "VEC3"
        },
        {
            "bufferView" : 27,
            "componentType" : 5126,
            "count" : 4,
            "type" : "VEC3"
        },
        {
            "bufferView" : 28,
            "componentType" : 5126,
            "count" : 4,
            "type" : "VEC2"
        },
        {
            "bufferView" : 29,
            "componentType" : 5126,
            "count" : 4,
            "max" : [
                1,
                0,
                1
            ],
            "min" : [
                -1,
                0,
                -1
            ],
            "type" : "VEC3"
        },
        {
            "bufferView" : 30,
            "componentType" : 5126,
            "count" : 4,
            "type" : "VEC3"
        },
        {
            "bufferView" : 31,
            "componentType" : 5126,
            "count" : 4,
            "type" : "VEC2"
        }
    ],
    "bufferViews" : [
        {
            "buffer" : 0,
            "byteLength" : 48,
            "byteOffset" : 0
        },
        {
            "buffer" : 0,
            "byteLength" : 48,
            "byteOffset" : 48
        },
        {
            "buffer" : 0,
            "byteLength" : 32,
            "byteOffset" : 96
        },
        {
            "buffer" : 0,
            "byteLength" : 12,
            "byteOffset" : 128
        },
        {
            "buffer" : 0,
            "byteLength" : 48,
            "byteOffset" : 140
        },
        {
            "buffer" : 0,
            "byteLength" : 48,
            "byteOffset" : 188
        },
        {
            "buffer" : 0,
            "byteLength" : 32,
            "byteOffset" : 236
        },
        {
            "buffer" : 0,
            "byteLength" : 48,
            "byteOffset" : 268
        },
        {
            "buffer" : 0,
            "byteLength" : 48,
            "byteOffset" : 316
        },
        {
            "buffer" : 0,
            "byteLength" : 32,
            "byteOffset" : 364
        },
        {
            "buffer" : 0,
            "byteLength" : 288,
            "byteOffset" : 396
        },
        {
            "buffer" : 0,
            "byteLength" : 288,
            "byteOffset" : 684
        },
        {
            "buffer" : 0,
            "byteLength" : 192,
            "byteOffset" : 972
        },
        {
            "buffer" : 0,
            "byteLength" : 72,
            "byteOffset" : 1164
        },
        {
            "buffer" : 0,
            "byteLength" : 288,
            "byteOffset" : 1236
        },
        {
            "buffer" : 0,
            "byteLength" : 288,
            "byteOffset" : 1524
        },
        {
            "buffer" : 0,
            "byteLength" : 192,
            "byteOffset" : 1812
        },
        {
            "buffer" : 0,
            "byteLength" : 288,
            "byteOffset" : 2004
        },
        {
            "buffer" : 0,
            "byteLength" : 288,
            "byteOffset" : 2292
        },
        {
            "buffer" : 0,
            "byteLength" : 192,
            "byteOffset" : 2580
        },
        {
            "buffer" : 0,
            "byteLength" : 288,
            "byteOffset" : 2772
        },
        {
            "buffer" : 0,
            "byteLength" : 288,
            "byteOffset" : 3060
        },
        {
            "buffer" : 0,
            "byteLength" : 192,
            "byteOffset" : 3348
        },
        {
            "buffer" : 0,
            "byteLength" : 48,
            "byteOffset" : 3540
        },
        {
            "buffer" : 0,
            "byteLength" : 48,
            "byteOffset" : 3588
        },
        {
            "buffer" : 0,
            "byteLength" : 32,
            "byteOffset" : 3636
        },
        {
            "buffer" : 0,
            "byteLength" : 48,
            "byteOffset" : 3668
        },
        {
            "buffer" : 0,
            "byteLength" : 48,
            "byteOffset" : 3716
        },
        {
            "buffer" : 0,
            "byteLength" : 32,
            "byteOffset" : 3764
        },
        {
            "buffer" : 0,
            "byteLength" : 48,
            "byteOffset" : 3796
        },
        {
            "buffer" : 0,
            "byteLength" : 48,
            "byteOffset" : 3844
        },
        {
            "buffer" : 0,
            "byteLength" : 32,
            "byteOffset" : 3892
        }
    ],
    "buffers" : [
        {
            "byteLength" : 3924,
            "uri" : "shadowMappingScene.bin"
        }
    ]
}
