{
    "asset" : {
        "generator" : "Khronos glTF Blender I/O v1.1.46",
        "version" : "2.0"
    },
    "scene" : 0,
    "scenes" : [
        {
            "name" : "Scene",
            "nodes" : [
                0,
                1,
                2,
                3,
                4,
                5,
                6,
                7,
                8,
                9
            ]
        }
    ],
    "nodes" : [
        {
            "mesh" : 0,
            "name" : "Plane",
            "rotation" : [
                0.7071068286895752,
                0,
                0,
                0.7071067094802856
            ],
            "scale" : [
                10,
                10.00000286102295,
                1
            ],
            "translation" : [
                0,
                -2.000000238418579,
                0
            ]
        },
        {
            "mesh" : 1,
            "name" : "Plane.001",
            "rotation" : [
                0.7047496438026428,
                0,
                -0.7094560861587524,
                -8.949152174864139e-08
            ],
            "scale" : [
                10.000003814697266,
                3.00000262260437,
                1
            ],
            "translation" : [
                -10,
                1.000000238418579,
                0
            ]
        },
        {
            "mesh" : 2,
            "name" : "Plane.002",
            "rotation" : [
                -0.7071065902709961,
                0,
                -0.7071069478988647,
                1.3179669622331858e-07
            ],
            "scale" : [
                10.00001049041748,
                3.0000054836273193,
                1
            ],
            "translation" : [
                10,
                1.0274051427841187,
                0
            ]
        },
        {
            "mesh" : 3,
            "name" : "Cube",
            "rotation" : [
                0.7071068286895752,
                0,
                0,
                0.7071067094802856
            ],
            "scale" : [
                1,
                1,
                2.0000009536743164
            ],
            "translation" : [
                3.3344664573669434,
                0.027408065274357796,
                -5.000002384185791
            ]
        },
        {
            "mesh" : 4,
            "name" : "Cube.001",
            "rotation" : [
                1,
                0,
                0,
                -1.3435885648505064e-07
            ],
            "scale" : [
                1,
                1,
                4.000001430511475
            ],
            "translation" : [
                3.3344664573669434,
                -0.9725959897041321,
                0
            ]
        },
        {
            "mesh" : 5,
            "name" : "Cube.003",
            "rotation" : [
                0.0004088553541805595,
                0.7071067094802856,
                -0.7071065902709961,
                0.00040885538328438997
            ],
            "scale" : [
                1,
                1,
                2.0000007152557373
            ],
            "translation" : [
                -3.333991527557373,
                0.027404502034187317,
                3.6944429874420166
            ]
        },
        {
            "mesh" : 6,
            "name" : "Cube.002",
            "rotation" : [
                0.000578208826482296,
                0,
                -0.9999998211860657,
                -1.826422693640417e-11
            ],
            "scale" : [
                1,
                1,
                4.000001907348633
            ],
            "translation" : [
                -3.328209400177002,
                -0.9725953936576843,
                -1.305556297302246
            ]
        },
        {
            "mesh" : 7,
            "name" : "Plane.003",
            "rotation" : [
                1,
                0,
                0,
                -1.3435885648505064e-07
            ],
            "scale" : [
                10,
                3.000002384185791,
                1
            ],
            "translation" : [
                0,
                1.0000028610229492,
                -10.000004768371582
            ]
        },
        {
            "mesh" : 8,
            "name" : "Plane.004",
            "rotation" : [
                0,
                0,
                -1,
                0
            ],
            "scale" : [
                9.999958038330078,
                3.000002384185791,
                0.9999960660934448
            ],
            "translation" : [
                0,
                0.9999974966049194,
                10.000001907348633
            ]
        },
        {
            "mesh" : 9,
            "name" : "Plane.005",
            "rotation" : [
                -0.7071067094802856,
                0,
                0,
                0.70710688829422
            ],
            "scale" : [
                10,
                9.999402046203613,
                0.999940037727356
            ],
            "translation" : [
                0,
                4.04315710067749,
                0
            ]
        }
    ],
    "meshes" : [
        {
            "name" : "Plane.004",
            "primitives" : [
                {
                    "attributes" : {
                        "POSITION" : 0,
                        "NORMAL" : 1,
                        "TEXCOORD_0" : 2
                    },
                    "indices" : 3
                }
            ]
        },
        {
            "name" : "Plane.005",
            "primitives" : [
                {
                    "attributes" : {
                        "POSITION" : 4,
                        "NORMAL" : 5,
                        "TEXCOORD_0" : 6
                    },
                    "indices" : 3
                }
            ]
        },
        {
            "name" : "Plane.006",
            "primitives" : [
                {
                    "attributes" : {
                        "POSITION" : 7,
                        "NORMAL" : 8,
                        "TEXCOORD_0" : 9
                    },
                    "indices" : 3
                }
            ]
        },
        {
            "name" : "Cube.005",
            "primitives" : [
                {
                    "attributes" : {
                        "POSITION" : 10,
                        "NORMAL" : 11,
                        "TEXCOORD_0" : 12
                    },
                    "indices" : 13
                }
            ]
        },
        {
            "name" : "Cube.006",
            "primitives" : [
                {
                    "attributes" : {
                        "POSITION" : 14,
                        "NORMAL" : 15,
                        "TEXCOORD_0" : 16
                    },
                    "indices" : 13
                }
            ]
        },
        {
            "name" : "Cube.002",
            "primitives" : [
                {
                    "attributes" : {
                        "POSITION" : 17,
                        "NORMAL" : 18,
                        "TEXCOORD_0" : 19
                    },
                    "indices" : 13
                }
            ]
        },
        {
            "name" : "Cube.001",
            "primitives" : [
                {
                    "attributes" : {
                        "POSITION" : 20,
                        "NORMAL" : 21,
                        "TEXCOORD_0" : 22
                    },
                    "indices" : 13
                }
            ]
        },
        {
            "name" : "Plane.001",
            "primitives" : [
                {
                    "attributes" : {
                        "POSITION" : 23,
                        "NORMAL" : 24,
                        "TEXCOORD_0" : 25
                    },
                    "indices" : 3
                }
            ]
        },
        {
            "name" : "Plane.002",
            "primitives" : [
                {
                    "attributes" : {
                        "POSITION" : 26,
                        "NORMAL" : 27,
                        "TEXCOORD_0" : 28
                    },
                    "indices" : 3
                }
            ]
        },
        {
            "name" : "Plane.003",
            "primitives" : [
                {
                    "attributes" : {
                        "POSITION" : 29,
                        "NORMAL" : 30,
                        "TEXCOORD_0" : 31
                    },
                    "indices" : 3
                }
            ]
        }
    ],
    "accessors" : [
        {
            "bufferView" : 0,
            "componentType" : 5126,
            "count" : 4,
            "max" : [
                1,
                1,
                0
            ],
            "min" : [
                -1,
                -1,
                0
            ],
            "type" : "VEC3"
        },
        {
            "bufferView" : 1,
            "componentType" : 5126,
            "count" : 4,
            "type" : "VEC3"
        },
        {
            "bufferView" : 2,
            "componentType" : 5126,
            "count" : 4,
            "type" : "VEC2"
        },
        {
            "bufferView" : 3,
            "componentType" : 5123,
            "count" : 6,
            "type" : "SCALAR"
        },
        {
            "bufferView" : 4,
            "componentType" : 5126,
            "count" : 4,
            "max" : [
                1,
                1,
                0
            ],
            "min" : [
                -1,
                -1,
                0
            ],
            "type" : "VEC3"
        },
        {
            "bufferView" : 5,
            "componentType" : 5126,
            "count" : 4,
            "type" : "VEC3"
        },
        {
            "bufferView" : 6,
            "componentType" : 5126,
            "count" : 4,
            "type" : "VEC2"
        },
        {
            "bufferView" : 7,
            "componentType" : 5126,
            "count" : 4,
            "max" : [
                1,
                1,
                0
            ],
            "min" : [
                -1,
                -1,
                0
            ],
            "type" : "VEC3"
        },
        {
            "bufferView" : 8,
            "componentType" : 5126,
            "count" : 4,
            "type" : "VEC3"
        },
        {
            "bufferView" : 9,
            "componentType" : 5126,
            "count" : 4,
            "type" : "VEC2"
        },
        {
            "bufferView" : 10,
            "componentType" : 5126,
            "count" : 24,
            "max" : [
                1,
                1,
                1
            ],
            "min" : [
                -1,
                -1,
                -1
            ],
            "type" : "VEC3"
        },
        {
            "bufferView" : 11,
            "componentType" : 5126,
            "count" : 24,
            "type" : "VEC3"
        },
        {
            "bufferView" : 12,
            "componentType" : 5126,
            "count" : 24,
            "type" : "VEC2"
        },
        {
            "bufferView" : 13,
            "componentType" : 5123,
            "count" : 36,
            "type" : "SCALAR"
        },
        {
            "bufferView" : 14,
            "componentType" : 5126,
            "count" : 24,
            "max" : [
                1,
                1,
                1
            ],
            "min" : [
                -1,
                -1,
                -1
            ],
            "type" : "VEC3"
        },
        {
            "bufferView" : 15,
            "componentType" : 5126,
            "count" : 24,
            "type" : "VEC3"
        },
        {
            "bufferView" : 16,
            "componentType" : 5126,
            "count" : 24,
            "type" : "VEC2"
        },
        {
            "bufferView" : 17,
            "componentType" : 5126,
            "count" : 24,
            "max" : [
                1,
                1,
                1
            ],
            "min" : [
                -1,
                -1,
                -1
            ],
            "type" : "VEC3"
        },
        {
            "bufferView" : 18,
            "componentType" : 5126,
            "count" : 24,
            "type" : "VEC3"
        },
        {
            "bufferView" : 19,
            "componentType" : 5126,
            "count" : 24,
            "type" : "VEC2"
        },
        {
            "bufferView" : 20,
            "componentType" : 5126,
            "count" : 24,
            "max" : [
                1,
                1,
                1
            ],
            "min" : [
                -1,
                -1,
                -1
            ],
            "type" : "VEC3"
        },
        {
            "bufferView" : 21,
            "componentType" : 5126,
            "count" : 24,
            "type" : "VEC3"
        },
        {
            "bufferView" : 22,
            "componentType" : 5126,
            "count" : 24,
            "type" : "VEC2"
        },
        {
            "bufferView" : 23,
            "componentType" : 5126,
            "count" : 4,
            "max" : [
                1,
                1,
                0
            ],
            "min" : [
                -1,
                -1,
                0
            ],
            "type" : "VEC3"
        },
        {
            "bufferView" : 24,
            "componentType" : 5126,
            "count" : 4,
            "type" : "VEC3"
        },
        {
            "bufferView" : 25,
            "componentType" : 5126,
            "count" : 4,
            "type" : "VEC2"
        },
        {
            "bufferView" : 26,
            "componentType" : 5126,
            "count" : 4,
            "max" : [
                1,
                1,
                0
            ],
            "min" : [
                -1,
                -1,
                0
            ],
            "type" : "VEC3"
        },
        {
            "bufferView" : 27,
            "componentType" : 5126,
            "count" : 4,
            "type" : "VEC3"
        },
        {
            "bufferView" : 28,
            "componentType" : 5126,
            "count" : 4,
            "type" : "VEC2"
        },
        {
            "bufferView" : 29,
            "componentType" : 5126,
            "count" : 4,
            "max" : [
                1,
                1,
                0
            ],
            "min" : [
                -1,
                -1,
                0
            ],
            "type" : "VEC3"
        },
        {
            "bufferView" : 30,
            "componentType" : 5126,
            "count" : 4,
            "type" : "VEC3"
        },
        {
            "bufferView" : 31,
            "componentType" : 5126,
            "count" : 4,
            "type" : "VEC2"
        }
    ],
    "bufferViews" : [
        {
            "buffer" : 0,
            "byteLength" : 48,
            "byteOffset" : 0
        },
        {
            "buffer" : 0,
            "byteLength" : 48,
            "byteOffset" : 48
        },
        {
            "buffer" : 0,
            "byteLength" : 32,
            "byteOffset" : 96
        },
        {
            "buffer" : 0,
            "byteLength" : 12,
            "byteOffset" : 128
        },
        {
            "buffer" : 0,
            "byteLength" : 48,
            "byteOffset" : 140
        },
        {
            "buffer" : 0,
            "byteLength" : 48,
            "byteOffset" : 188
        },
        {
            "buffer" : 0,
            "byteLength" : 32,
            "byteOffset" : 236
        },
        {
            "buffer" : 0,
            "byteLength" : 48,
            "byteOffset" : 268
        },
        {
            "buffer" : 0,
            "byteLength" : 48,
            "byteOffset" : 316
        },
        {
            "buffer" : 0,
            "byteLength" : 32,
            "byteOffset" : 364
        },
        {
            "buffer" : 0,
            "byteLength" : 288,
            "byteOffset" : 396
        },
        {
            "buffer" : 0,
            "byteLength" : 288,
            "byteOffset" : 684
        },
        {
            "buffer" : 0,
            "byteLength" : 192,
            "byteOffset" : 972
        },
        {
            "buffer" : 0,
            "byteLength" : 72,
            "byteOffset" : 1164
        },
        {
            "buffer" : 0,
            "byteLength" : 288,
            "byteOffset" : 1236
        },
        {
            "buffer" : 0,
            "byteLength" : 288,
            "byteOffset" : 1524
        },
        {
            "buffer" : 0,
            "byteLength" : 192,
            "byteOffset" : 1812
        },
        {
            "buffer" : 0,
            "byteLength" : 288,
            "byteOffset" : 2004
        },
        {
            "buffer" : 0,
            "byteLength" : 288,
            "byteOffset" : 2292
        },
        {
            "buffer" : 0,
            "byteLength" : 192,
            "byteOffset" : 2580
        },
        {
            "buffer" : 0,
            "byteLength" : 288,
            "byteOffset" : 2772
        },
        {
            "buffer" : 0,
            "byteLength" : 288,
            "byteOffset" : 3060
        },
        {
            "buffer" : 0,
            "byteLength" : 192,
            "byteOffset" : 3348
        },
        {
            "buffer" : 0,
            "byteLength" : 48,
            "byteOffset" : 3540
        },
        {
            "buffer" : 0,
            "byteLength" : 48,
            "byteOffset" : 3588
        },
        {
            "buffer" : 0,
            "byteLength" : 32,
            "byteOffset" : 3636
        },
        {
            "buffer" : 0,
            "byteLength" : 48,
            "byteOffset" : 3668
        },
        {
            "buffer" : 0,
            "byteLength" : 48,
            "byteOffset" : 3716
        },
        {
            "buffer" : 0,
            "byteLength" : 32,
            "byteOffset" : 3764
        },
        {
            "buffer" : 0,
            "byteLength" : 48,
            "byteOffset" : 3796
        },
        {
            "buffer" : 0,
            "byteLength" : 48,
            "byteOffset" : 3844
        },
        {
            "buffer" : 0,
            "byteLength" : 32,
            "byteOffset" : 3892
        }
    ],
    "buffers" : [
        {
            "byteLength" : 3924,
            "uri" : "shadowMappingScene.bin"
        }
    ]
}
