{
    "asset" : {
        "generator" : "Khronos glTF Blender I/O v1.1.46",
        "version" : "2.0"
    },
    "scene" : 0,
    "scenes" : [
        {
            "name" : "Scene",
            "nodes" : [
                0,
                1,
                2,
                3,
                4,
                5,
                6,
                7,
                8,
                9
            ]
        }
    ],
    "nodes" : [
        {
            "mesh" : 0,
            "name" : "Plane",
            "rotation" : [
                1,
                0,
                0,
                -1.3435885648505064e-07
            ],
            "scale" : [
                10,
                1,
                10.00000286102295
            ],
            "translation" : [
                0,
                -2.000000476837158,
                0
            ]
        },
        {
            "mesh" : 1,
            "name" : "Plane.001",
            "rotation" : [
                -0.498333215713501,
                0.5016611814498901,
                0.5016612410545349,
                0.4983333349227905
            ],
            "scale" : [
                10.000005722045898,
                1,
                3.0000035762786865
            ],
            "translation" : [
                -10,
                1.0000003576278687,
                0
            ]
        },
        {
            "mesh" : 2,
            "name" : "Plane.002",
            "rotation" : [
                -0.4999997317790985,
                -0.5000001192092896,
                -0.5000001788139343,
                0.5
            ],
            "scale" : [
                10.00001049041748,
                1,
                3.0000054836273193
            ],
            "translation" : [
                10,
                1.0274052619934082,
                0
            ]
        },
        {
            "mesh" : 3,
            "name" : "Cube",
            "rotation" : [
                1,
                0,
                0,
                -1.3435885648505064e-07
            ],
            "scale" : [
                1,
                2.0000009536743164,
                1
            ],
            "translation" : [
                3.3344664573669434,
                0.027408741414546967,
                -5.000002861022949
            ]
        },
        {
            "mesh" : 4,
            "name" : "Cube.001",
            "rotation" : [
                -0.7071065902709961,
                0,
                0,
                0.7071069478988647
            ],
            "scale" : [
                1,
                4.000001907348633,
                1
            ],
            "translation" : [
                3.3344664573669434,
                -0.9725961089134216,
                0
            ]
        },
        {
            "mesh" : 5,
            "name" : "Cube.003",
            "rotation" : [
                0.000578208826482296,
                0,
                -0.9999998211860657,
                -1.826422346695722e-11
            ],
            "scale" : [
                1,
                2.0000009536743164,
                1
            ],
            "translation" : [
                -3.333991527557373,
                0.02740401029586792,
                3.694443464279175
            ]
        },
        {
            "mesh" : 6,
            "name" : "Cube.002",
            "rotation" : [
                0.00040885538328438997,
                -0.7071065902709961,
                -0.7071067094802856,
                -0.00040885538328438997
            ],
            "scale" : [
                1,
                4.000002384185791,
                1
            ],
            "translation" : [
                -3.328209400177002,
                -0.9725953340530396,
                -1.3055565357208252
            ]
        },
        {
            "mesh" : 7,
            "name" : "Plane.003",
            "rotation" : [
                -0.7071065902709961,
                0,
                0,
                0.7071069478988647
            ],
            "scale" : [
                10,
                1,
                3.000002861022949
            ],
            "translation" : [
                0,
                1.0000042915344238,
                -10.000005722045898
            ]
        },
        {
            "mesh" : 8,
            "name" : "Plane.004",
            "rotation" : [
                0,
                -0.7071067094802856,
                -0.7071068286895752,
                0
            ],
            "scale" : [
                9.999958038330078,
                0.9999961853027344,
                3.000002861022949
            ],
            "translation" : [
                0,
                0.9999962449073792,
                10.00000286102295
            ]
        },
        {
            "mesh" : 9,
            "name" : "Plane.005",
            "scale" : [
                10,
                0.9999402165412903,
                9.999403953552246
            ],
            "translation" : [
                0,
                4.043157577514648,
                0
            ]
        }
    ],
    "meshes" : [
        {
            "name" : "Plane.004",
            "primitives" : [
                {
                    "attributes" : {
                        "POSITION" : 0,
                        "NORMAL" : 1,
                        "TEXCOORD_0" : 2
                    },
                    "indices" : 3
                }
            ]
        },
        {
            "name" : "Plane.005",
            "primitives" : [
                {
                    "attributes" : {
                        "POSITION" : 4,
                        "NORMAL" : 5,
                        "TEXCOORD_0" : 6
                    },
                    "indices" : 3
                }
            ]
        },
        {
            "name" : "Plane.006",
            "primitives" : [
                {
                    "attributes" : {
                        "POSITION" : 7,
                        "NORMAL" : 8,
                        "TEXCOORD_0" : 9
                    },
                    "indices" : 3
                }
            ]
        },
        {
            "name" : "Cube.005",
            "primitives" : [
                {
                    "attributes" : {
                        "POSITION" : 10,
                        "NORMAL" : 11,
                        "TEXCOORD_0" : 12
                    },
                    "indices" : 13
                }
            ]
        },
        {
            "name" : "Cube.006",
            "primitives" : [
                {
                    "attributes" : {
                        "POSITION" : 14,
                        "NORMAL" : 15,
                        "TEXCOORD_0" : 16
                    },
                    "indices" : 13
                }
            ]
        },
        {
            "name" : "Cube.002",
            "primitives" : [
                {
                    "attributes" : {
                        "POSITION" : 17,
                        "NORMAL" : 18,
                        "TEXCOORD_0" : 19
                    },
                    "indices" : 13
                }
            ]
        },
        {
            "name" : "Cube.001",
            "primitives" : [
                {
                    "attributes" : {
                        "POSITION" : 20,
                        "NORMAL" : 21,
                        "TEXCOORD_0" : 22
                    },
                    "indices" : 13
                }
            ]
        },
        {
            "name" : "Plane.001",
            "primitives" : [
                {
                    "attributes" : {
                        "POSITION" : 23,
                        "NORMAL" : 24,
                        "TEXCOORD_0" : 25
                    },
                    "indices" : 3
                }
            ]
        },
        {
            "name" : "Plane.002",
            "primitives" : [
                {
                    "attributes" : {
                        "POSITION" : 26,
                        "NORMAL" : 27,
                        "TEXCOORD_0" : 28
                    },
                    "indices" : 3
                }
            ]
        },
        {
            "name" : "Plane.003",
            "primitives" : [
                {
                    "attributes" : {
                        "POSITION" : 29,
                        "NORMAL" : 30,
                        "TEXCOORD_0" : 31
                    },
                    "indices" : 3
                }
            ]
        }
    ],
    "accessors" : [
        {
            "bufferView" : 0,
            "componentType" : 5126,
            "count" : 4,
            "max" : [
                1,
                0,
                1
            ],
            "min" : [
                -1,
                0,
                -1
            ],
            "type" : "VEC3"
        },
        {
            "bufferView" : 1,
            "componentType" : 5126,
            "count" : 4,
            "type" : "VEC3"
        },
        {
            "bufferView" : 2,
            "componentType" : 5126,
            "count" : 4,
            "type" : "VEC2"
        },
        {
            "bufferView" : 3,
            "componentType" : 5123,
            "count" : 6,
            "type" : "SCALAR"
        },
        {
            "bufferView" : 4,
            "componentType" : 5126,
            "count" : 4,
            "max" : [
                1,
                0,
                1
            ],
            "min" : [
                -1,
                0,
                -1
            ],
            "type" : "VEC3"
        },
        {
            "bufferView" : 5,
            "componentType" : 5126,
            "count" : 4,
            "type" : "VEC3"
        },
        {
            "bufferView" : 6,
            "componentType" : 5126,
            "count" : 4,
            "type" : "VEC2"
        },
        {
            "bufferView" : 7,
            "componentType" : 5126,
            "count" : 4,
            "max" : [
                1,
                0,
                1
            ],
            "min" : [
                -1,
                0,
                -1
            ],
            "type" : "VEC3"
        },
        {
            "bufferView" : 8,
            "componentType" : 5126,
            "count" : 4,
            "type" : "VEC3"
        },
        {
            "bufferView" : 9,
            "componentType" : 5126,
            "count" : 4,
            "type" : "VEC2"
        },
        {
            "bufferView" : 10,
            "componentType" : 5126,
            "count" : 24,
            "max" : [
                1,
                1,
                1
            ],
            "min" : [
                -1,
                -1,
                -1
            ],
            "type" : "VEC3"
        },
        {
            "bufferView" : 11,
            "componentType" : 5126,
            "count" : 24,
            "type" : "VEC3"
        },
        {
            "bufferView" : 12,
            "componentType" : 5126,
            "count" : 24,
            "type" : "VEC2"
        },
        {
            "bufferView" : 13,
            "componentType" : 5123,
            "count" : 36,
            "type" : "SCALAR"
        },
        {
            "bufferView" : 14,
            "componentType" : 5126,
            "count" : 24,
            "max" : [
                1,
                1,
                1
            ],
            "min" : [
                -1,
                -1,
                -1
            ],
            "type" : "VEC3"
        },
        {
            "bufferView" : 15,
            "componentType" : 5126,
            "count" : 24,
            "type" : "VEC3"
        },
        {
            "bufferView" : 16,
            "componentType" : 5126,
            "count" : 24,
            "type" : "VEC2"
        },
        {
            "bufferView" : 17,
            "componentType" : 5126,
            "count" : 24,
            "max" : [
                1,
                1,
                1
            ],
            "min" : [
                -1,
                -1,
                -1
            ],
            "type" : "VEC3"
        },
        {
            "bufferView" : 18,
            "componentType" : 5126,
            "count" : 24,
            "type" : "VEC3"
        },
        {
            "bufferView" : 19,
            "componentType" : 5126,
            "count" : 24,
            "type" : "VEC2"
        },
        {
            "bufferView" : 20,
            "componentType" : 5126,
            "count" : 24,
            "max" : [
                1,
                1,
                1
            ],
            "min" : [
                -1,
                -1,
                -1
            ],
            "type" : "VEC3"
        },
        {
            "bufferView" : 21,
            "componentType" : 5126,
            "count" : 24,
            "type" : "VEC3"
        },
        {
            "bufferView" : 22,
            "componentType" : 5126,
            "count" : 24,
            "type" : "VEC2"
        },
        {
            "bufferView" : 23,
            "componentType" : 5126,
            "count" : 4,
            "max" : [
                1,
                0,
                1
            ],
            "min" : [
                -1,
                0,
                -1
            ],
            "type" : "VEC3"
        },
        {
            "bufferView" : 24,
            "componentType" : 5126,
            "count" : 4,
            "type" : "VEC3"
        },
        {
            "bufferView" : 25,
            "componentType" : 5126,
            "count" : 4,
            "type" : "VEC2"
        },
        {
            "bufferView" : 26,
            "componentType" : 5126,
            "count" : 4,
            "max" : [
                1,
                0,
                1
            ],
            "min" : [
                -1,
                0,
                -1
            ],
            "type" : "VEC3"
        },
        {
            "bufferView" : 27,
            "componentType" : 5126,
            "count" : 4,
            "type" : "VEC3"
        },
        {
            "bufferView" : 28,
            "componentType" : 5126,
            "count" : 4,
            "type" : "VEC2"
        },
        {
            "bufferView" : 29,
            "componentType" : 5126,
            "count" : 4,
            "max" : [
                1,
                0,
                1
            ],
            "min" : [
                -1,
                0,
                -1
            ],
            "type" : "VEC3"
        },
        {
            "bufferView" : 30,
            "componentType" : 5126,
            "count" : 4,
            "type" : "VEC3"
        },
        {
            "bufferView" : 31,
            "componentType" : 5126,
            "count" : 4,
            "type" : "VEC2"
        }
    ],
    "bufferViews" : [
        {
            "buffer" : 0,
            "byteLength" : 48,
            "byteOffset" : 0
        },
        {
            "buffer" : 0,
            "byteLength" : 48,
            "byteOffset" : 48
        },
        {
            "buffer" : 0,
            "byteLength" : 32,
            "byteOffset" : 96
        },
        {
            "buffer" : 0,
            "byteLength" : 12,
            "byteOffset" : 128
        },
        {
            "buffer" : 0,
            "byteLength" : 48,
            "byteOffset" : 140
        },
        {
            "buffer" : 0,
            "byteLength" : 48,
            "byteOffset" : 188
        },
        {
            "buffer" : 0,
            "byteLength" : 32,
            "byteOffset" : 236
        },
        {
            "buffer" : 0,
            "byteLength" : 48,
            "byteOffset" : 268
        },
        {
            "buffer" : 0,
            "byteLength" : 48,
            "byteOffset" : 316
        },
        {
            "buffer" : 0,
            "byteLength" : 32,
            "byteOffset" : 364
        },
        {
            "buffer" : 0,
            "byteLength" : 288,
            "byteOffset" : 396
        },
        {
            "buffer" : 0,
            "byteLength" : 288,
            "byteOffset" : 684
        },
        {
            "buffer" : 0,
            "byteLength" : 192,
            "byteOffset" : 972
        },
        {
            "buffer" : 0,
            "byteLength" : 72,
            "byteOffset" : 1164
        },
        {
            "buffer" : 0,
            "byteLength" : 288,
            "byteOffset" : 1236
        },
        {
            "buffer" : 0,
            "byteLength" : 288,
            "byteOffset" : 1524
        },
        {
            "buffer" : 0,
            "byteLength" : 192,
            "byteOffset" : 1812
        },
        {
            "buffer" : 0,
            "byteLength" : 288,
            "byteOffset" : 2004
        },
        {
            "buffer" : 0,
            "byteLength" : 288,
            "byteOffset" : 2292
        },
        {
            "buffer" : 0,
            "byteLength" : 192,
            "byteOffset" : 2580
        },
        {
            "buffer" : 0,
            "byteLength" : 288,
            "byteOffset" : 2772
        },
        {
            "buffer" : 0,
            "byteLength" : 288,
            "byteOffset" : 3060
        },
        {
            "buffer" : 0,
            "byteLength" : 192,
            "byteOffset" : 3348
        },
        {
            "buffer" : 0,
            "byteLength" : 48,
            "byteOffset" : 3540
        },
        {
            "buffer" : 0,
            "byteLength" : 48,
            "byteOffset" : 3588
        },
        {
            "buffer" : 0,
            "byteLength" : 32,
            "byteOffset" : 3636
        },
        {
            "buffer" : 0,
            "byteLength" : 48,
            "byteOffset" : 3668
        },
        {
            "buffer" : 0,
            "byteLength" : 48,
            "byteOffset" : 3716
        },
        {
            "buffer" : 0,
            "byteLength" : 32,
            "byteOffset" : 3764
        },
        {
            "buffer" : 0,
            "byteLength" : 48,
            "byteOffset" : 3796
        },
        {
            "buffer" : 0,
            "byteLength" : 48,
            "byteOffset" : 3844
        },
        {
            "buffer" : 0,
            "byteLength" : 32,
            "byteOffset" : 3892
        }
    ],
    "buffers" : [
        {
            "byteLength" : 3924,
            "uri" : "shadowMappingScene.bin"
        }
    ]
}
